<svg width="726" height="695" viewBox="0 0 726 695" fill="none" xmlns="http://www.w3.org/2000/svg">
<path d="M464.934 363.266C400.943 483.406 251.675 528.925 131.534 464.934C11.3934 400.943 -34.125 251.675 29.866 131.534C93.8569 11.3933 243.125 -34.1251 363.266 29.8659C483.407 93.8568 528.925 243.125 464.934 363.266Z" fill="#1C81AF" fill-opacity="0.74"/>
<path d="M726 217C726 334.637 630.637 430 513 430C395.363 430 300 334.637 300 217C300 99.3633 395.363 4 513 4C630.637 4 726 99.3633 726 217Z" fill="#FFB6B6" fill-opacity="0.8"/>
<path d="M566 474C566 596.055 467.055 695 345 695C222.945 695 124 596.055 124 474C124 351.945 222.945 253 345 253C467.055 253 566 351.945 566 474Z" fill="#52EBEB" fill-opacity="0.62"/>
<path d="M517.067 173.593H261.922C260.554 173.593 259.445 174.73 259.445 176.132V526.461C259.445 527.863 260.554 529 261.922 529H517.067C518.435 529 519.544 527.863 519.544 526.461V176.132C519.544 174.73 518.435 173.593 517.067 173.593Z" fill="#F5F5F5"/>
<path d="M517.067 529H261.922C261.266 528.999 260.636 528.731 260.172 528.256C259.707 527.78 259.446 527.134 259.445 526.461V176.132C259.446 175.459 259.707 174.813 260.172 174.337C260.636 173.861 261.266 173.594 261.922 173.593H517.067C517.724 173.594 518.353 173.861 518.818 174.337C519.282 174.813 519.543 175.459 519.544 176.132V526.461C519.543 527.134 519.282 527.78 518.818 528.256C518.353 528.731 517.724 528.999 517.067 529ZM261.922 174.862C261.594 174.863 261.279 174.996 261.047 175.234C260.815 175.472 260.684 175.795 260.684 176.131V526.461C260.684 526.798 260.815 527.12 261.047 527.358C261.279 527.596 261.594 527.73 261.922 527.731H517.067C517.395 527.73 517.71 527.596 517.942 527.358C518.175 527.12 518.305 526.798 518.306 526.461V176.131C518.305 175.795 518.175 175.472 517.942 175.234C517.71 174.996 517.395 174.863 517.067 174.862H261.922Z" fill="#CACACA"/>
<path d="M480.527 253.161H298.458C297.226 253.161 296.045 252.66 295.174 251.767C294.303 250.874 293.814 249.663 293.814 248.401C293.814 247.139 294.303 245.928 295.174 245.035C296.045 244.143 297.226 243.641 298.458 243.641H480.527C481.759 243.641 482.941 244.143 483.812 245.035C484.683 245.928 485.172 247.139 485.172 248.401C485.172 249.663 484.683 250.874 483.812 251.767C482.941 252.66 481.759 253.161 480.527 253.161Z" fill="#E6E6E6"/>
<path d="M480.527 283.942H298.458C297.226 283.942 296.045 283.44 295.174 282.548C294.303 281.655 293.814 280.444 293.814 279.182C293.814 277.919 294.303 276.709 295.174 275.816C296.045 274.923 297.226 274.422 298.458 274.422H480.527C481.759 274.422 482.941 274.923 483.812 275.816C484.683 276.709 485.172 277.919 485.172 279.182C485.172 280.444 484.683 281.655 483.812 282.548C482.941 283.44 481.759 283.942 480.527 283.942Z" fill="#E6E6E6"/>
<path d="M480.527 314.723H298.458C297.226 314.723 296.045 314.221 295.174 313.328C294.303 312.436 293.814 311.225 293.814 309.963C293.814 308.7 294.303 307.49 295.174 306.597C296.045 305.704 297.226 305.203 298.458 305.203H480.527C481.759 305.203 482.941 305.704 483.812 306.597C484.683 307.49 485.172 308.7 485.172 309.963C485.172 311.225 484.683 312.436 483.812 313.328C482.941 314.221 481.759 314.723 480.527 314.723Z" fill="#E6E6E6"/>
<path d="M480.527 345.503H298.458C297.226 345.503 296.045 345.002 295.174 344.109C294.303 343.217 293.814 342.006 293.814 340.743C293.814 339.481 294.303 338.27 295.174 337.378C296.045 336.485 297.226 335.984 298.458 335.984H480.527C481.759 335.984 482.941 336.485 483.812 337.378C484.683 338.27 485.172 339.481 485.172 340.743C485.172 342.006 484.683 343.217 483.812 344.109C482.941 345.002 481.759 345.503 480.527 345.503Z" fill="#E6E6E6"/>
<path d="M480.527 376.284H298.458C297.226 376.284 296.045 375.783 295.174 374.89C294.303 373.997 293.814 372.787 293.814 371.524C293.814 370.262 294.303 369.051 295.174 368.158C296.045 367.266 297.226 366.764 298.458 366.764H480.527C481.759 366.764 482.941 367.266 483.812 368.158C484.683 369.051 485.172 370.262 485.172 371.524C485.172 372.787 484.683 373.997 483.812 374.89C482.941 375.783 481.759 376.284 480.527 376.284Z" fill="#E6E6E6"/>
<path d="M298.21 312.485C298.098 312.882 298.018 313.288 297.969 313.698L265.698 330.391L258.343 325.473L249.65 335.878L261.844 345.881C262.829 346.69 264.043 347.148 265.304 347.189C266.566 347.23 267.806 346.85 268.838 346.107L302.497 321.889C303.922 322.525 305.502 322.7 307.027 322.393C308.551 322.085 309.948 321.31 311.032 320.169C312.116 319.028 312.835 317.576 313.094 316.006C313.353 314.436 313.14 312.822 312.482 311.379C311.824 309.937 310.753 308.734 309.412 307.93C308.071 307.126 306.522 306.76 304.973 306.88C303.424 307 301.947 307.6 300.738 308.602C299.53 309.603 298.648 310.958 298.21 312.485Z" fill="#FFB6B6"/>
<path d="M264.64 331.022L253.942 343.985C253.637 344.354 253.259 344.651 252.832 344.857C252.406 345.062 251.941 345.171 251.47 345.176C250.998 345.18 250.531 345.081 250.101 344.884C249.67 344.687 249.286 344.398 248.975 344.035L238.064 331.329C236.23 329.723 235.093 327.436 234.902 324.972C234.712 322.508 235.482 320.067 237.045 318.184C238.608 316.301 240.836 315.131 243.24 314.929C245.644 314.727 248.028 315.511 249.869 317.108L263.864 325.994C264.264 326.249 264.607 326.589 264.867 326.991C265.128 327.394 265.301 327.849 265.375 328.326C265.449 328.803 265.421 329.291 265.294 329.756C265.167 330.221 264.944 330.653 264.64 331.022Z" fill="#1C81AF"/>
<path d="M224.359 521.041H231.951L235.563 491.03H224.357L224.359 521.041Z" fill="#FFB6B6"/>
<path d="M222.422 518.501L237.374 518.501C239.901 518.501 242.325 519.529 244.112 521.361C245.899 523.192 246.903 525.676 246.903 528.265V528.583L222.422 528.584L222.422 518.501Z" fill="#2F2E41"/>
<path d="M222.648 437.466L224.807 444.925L253.91 439.941L250.723 428.932L222.648 437.466Z" fill="#FFB6B6"/>
<path d="M224.474 434.841L228.726 449.531C229.444 452.014 229.171 454.689 227.966 456.965C226.761 459.241 224.723 460.934 222.3 461.671L222.003 461.761L215.042 437.708L224.474 434.841Z" fill="#2F2E41"/>
<path d="M482.091 445.498H361.3C359.598 445.498 358.218 443.366 358.218 440.738C358.218 438.109 359.598 435.978 361.3 435.978H482.091C483.792 435.978 485.172 438.109 485.172 440.738C485.172 443.366 483.792 445.498 482.091 445.498Z" fill="#E6E6E6"/>
<path d="M482.091 472.788H361.3C359.598 472.788 358.218 470.657 358.218 468.028C358.218 465.399 359.598 463.268 361.3 463.268H482.091C483.792 463.268 485.172 465.399 485.172 468.028C485.172 470.657 483.792 472.788 482.091 472.788Z" fill="#E6E6E6"/>
<path d="M519.544 210.187C539.265 210.187 555.251 193.804 555.251 173.594C555.251 153.384 539.265 137 519.544 137C499.824 137 483.837 153.384 483.837 173.594C483.837 193.804 499.824 210.187 519.544 210.187Z" fill="#1C81AF"/>
<path d="M504.667 171.178C504.042 171.178 503.442 171.433 503 171.885C502.558 172.338 502.31 172.952 502.31 173.593C502.31 174.233 502.558 174.848 503 175.301C503.442 175.753 504.042 176.008 504.667 176.008H517.188V188.84C517.19 189.479 517.439 190.092 517.88 190.544C518.322 190.995 518.921 191.249 519.545 191.249C520.168 191.249 520.767 190.995 521.209 190.544C521.65 190.092 521.899 189.479 521.901 188.84V176.008H534.422C535.047 176.008 535.647 175.753 536.089 175.301C536.531 174.848 536.779 174.233 536.779 173.593C536.779 172.952 536.531 172.338 536.089 171.885C535.647 171.433 535.047 171.178 534.422 171.178H521.901V158.345C521.901 157.705 521.652 157.091 521.211 156.638C520.769 156.185 520.169 155.931 519.545 155.931C518.92 155.931 518.32 156.185 517.879 156.638C517.437 157.091 517.188 157.705 517.188 158.345V171.178H504.667Z" fill="#F5F5F5"/>
<path d="M301.083 422.118C299.987 423.99 298.44 425.542 296.591 426.624C294.741 427.707 292.651 428.284 290.522 428.301L244.89 443.271L242.804 430.87L270.434 415.505L243.665 395.746L263.277 372.226L298.9 406.252C300.982 408.241 302.334 410.901 302.731 413.789C303.129 416.677 302.547 419.617 301.083 422.118Z" fill="#2F2E41"/>
<path d="M234.901 506.933H223.635C213.519 435.871 203.222 364.612 233.65 338.013L269.537 344L264.946 375.219L244.917 398.739L234.901 506.933Z" fill="#2F2E41"/>
<path d="M267.342 356.876C252.154 367.483 232.534 364.989 224.344 349.184C236.111 328.875 238.588 314.278 229.116 307.614C227.598 302.067 228.164 296.139 230.703 290.999C233.242 285.86 237.569 281.882 242.83 279.853L260.773 287.55C276.007 300.278 279.008 314.064 273.292 328.604L267.342 356.876Z" fill="#1C81AF"/>
<path d="M555 528L134 528V529L555 529V528Z" fill="#CACACA"/>
<path d="M161.961 498.789C164.266 499.619 166.739 499.827 169.145 499.393C171.55 498.959 173.805 497.897 175.694 496.31C180.504 492.173 182.011 485.357 183.239 479.048L186.868 460.38L179.27 465.739C173.806 469.596 168.219 473.575 164.436 479.16C160.652 484.745 159.001 492.369 162.041 498.412" fill="#E6E6E6"/>
<path d="M163.135 522.688C162.176 515.548 161.195 508.317 161.867 501.099C162.462 494.689 164.371 488.429 168.255 483.296C170.317 480.576 172.826 478.246 175.669 476.411C176.412 475.931 177.094 477.135 176.355 477.613C171.435 480.799 167.63 485.504 165.488 491.049C163.123 497.216 162.742 503.939 163.15 510.49C163.398 514.452 163.92 518.388 164.446 522.318C164.488 522.496 164.462 522.683 164.374 522.842C164.286 523.001 164.142 523.12 163.972 523.174C163.798 523.223 163.613 523.199 163.456 523.108C163.3 523.017 163.185 522.866 163.136 522.688H163.135Z" fill="#F2F2F2"/>
<path d="M170.018 511.232C171.006 512.771 172.365 514.023 173.962 514.868C175.56 515.713 177.343 516.121 179.14 516.055C183.757 515.83 187.607 512.528 191.071 509.391L201.321 500.117L194.538 499.785C189.66 499.546 184.656 499.322 180.009 500.864C175.363 502.405 171.078 506.116 170.228 511.044" fill="#E6E6E6"/>
<path d="M160.431 526.793C165.035 518.444 170.376 509.166 179.918 506.2C182.571 505.378 185.353 505.084 188.114 505.332C188.984 505.409 188.767 506.784 187.898 506.707C183.27 506.313 178.651 507.566 174.818 510.254C171.131 512.826 168.259 516.403 165.828 520.196C164.342 522.519 163.006 524.941 161.672 527.36C161.246 528.133 160 527.575 160.431 526.793Z" fill="#F2F2F2"/>
<path d="M556 513.782C554.222 514.422 552.313 514.583 550.456 514.248C548.6 513.912 546.86 513.093 545.402 511.869C541.69 508.676 540.527 503.416 539.581 498.545L536.78 484.139L542.644 488.277C546.861 491.253 551.173 494.323 554.092 498.633C557.011 502.943 558.287 508.827 555.941 513.49" fill="#E6E6E6"/>
<path d="M554.381 527.456C554.897 523.605 555.427 519.705 555.065 515.814C554.83 512.344 553.635 509.014 551.62 506.215C550.508 504.748 549.155 503.492 547.622 502.502C547.222 502.244 546.854 502.893 547.25 503.15C549.903 504.868 551.955 507.405 553.11 510.396C554.386 513.721 554.591 517.346 554.371 520.878C554.238 523.015 553.956 525.137 553.672 527.256C553.65 527.352 553.664 527.453 553.711 527.538C553.759 527.624 553.836 527.688 553.928 527.717C554.022 527.742 554.121 527.729 554.205 527.68C554.29 527.631 554.352 527.55 554.379 527.455L554.381 527.456Z" fill="#F2F2F2"/>
<path d="M211.274 369.408C212.222 369.183 213.109 368.747 213.875 368.132C214.64 367.517 215.264 366.737 215.704 365.848C216.144 364.959 216.388 363.982 216.419 362.986C216.45 361.99 216.268 360.998 215.885 360.082L240.41 303.298L226.38 299.677L206.684 356.632C205.225 357.394 204.089 358.677 203.492 360.24C202.894 361.802 202.876 363.535 203.442 365.11C204.008 366.684 205.118 367.992 206.561 368.784C208.005 369.576 209.682 369.798 211.274 369.408Z" fill="#FFB6B6"/>
<path d="M237.09 313.454L223.445 306.908C223.057 306.722 222.712 306.452 222.435 306.117C222.157 305.782 221.954 305.39 221.838 304.967C221.722 304.544 221.696 304.1 221.762 303.666C221.829 303.232 221.986 302.818 222.222 302.452L230.515 289.617C231.457 287.589 233.145 286.025 235.209 285.27C237.274 284.514 239.547 284.628 241.53 285.586C243.512 286.545 245.044 288.27 245.788 290.383C246.532 292.496 246.429 294.826 245.5 296.861L241.212 311.561C241.089 311.982 240.879 312.371 240.596 312.701C240.314 313.032 239.965 313.295 239.574 313.475C239.182 313.655 238.758 313.746 238.329 313.742C237.901 313.738 237.478 313.64 237.09 313.454Z" fill="#1C81AF"/>
<path d="M267.356 275.672H231.438C230.699 275.671 229.991 275.37 229.468 274.834C228.946 274.299 228.652 273.573 228.651 272.816V256.949C228.651 251.311 230.837 245.903 234.727 241.916C238.618 237.928 243.895 235.688 249.397 235.688C254.899 235.688 260.176 237.928 264.067 241.916C267.957 245.903 270.143 251.311 270.143 256.949V272.816C270.142 273.573 269.848 274.299 269.326 274.834C268.803 275.37 268.095 275.671 267.356 275.672Z" fill="#2F2E41"/>
<path d="M254.517 275.431C262.918 275.431 269.727 268.452 269.727 259.843C269.727 251.234 262.918 244.255 254.517 244.255C246.117 244.255 239.307 251.234 239.307 259.843C239.307 268.452 246.117 275.431 254.517 275.431Z" fill="#FFB6B6"/>
<path d="M275.051 258.536H253.088L252.863 255.305L251.737 258.536H248.355L247.908 252.131L245.676 258.536H239.133V258.219C239.138 253.76 240.868 249.485 243.945 246.332C247.021 243.179 251.193 241.405 255.544 241.4H258.64C262.991 241.405 267.162 243.179 270.239 246.332C273.316 249.485 275.046 253.76 275.051 258.219V258.536Z" fill="#2F2E41"/>
</svg>
